<svg xmlns="http://www.w3.org/2000/svg" xmlns:xlink="http://www.w3.org/1999/xlink" width="57" height="57" viewBox="0 0 57 57">
  <defs>
    <linearGradient id="linear-gradient" y1="0.5" x2="1" y2="0.5" gradientUnits="objectBoundingBox">
      <stop offset="0" stop-color="#8c3a92"/>
      <stop offset="1" stop-color="#f15e60"/>
    </linearGradient>
  </defs>
  <g id="Help_Troll_Icon_Full_Body" data-name="Help Troll Icon Full Body" transform="translate(-468.498 -920.498)">
    <rect id="Rectangle_6539" data-name="Rectangle 6539" width="57" height="57" transform="translate(468.498 920.498)" fill="rgba(255,255,255,0)"/>
    <g id="Group_12418" data-name="Group 12418" transform="translate(476.594 924.539)">
      <g id="Group_12443" data-name="Group 12443" transform="translate(0 9.626)">
        <g id="Group_12434" data-name="Group 12434" transform="translate(0 3.344)">
          <g id="Group_12420" data-name="Group 12420" transform="translate(18.026 19.382)">
            <g id="Group_12419" data-name="Group 12419" transform="translate(0 0.051)">
              <g id="Group_12418-2" data-name="Group 12418">
                <path id="Path_16774" data-name="Path 16774" d="M-2370.6,6272.184a2.035,2.035,0,0,0,.523.059c2.3.008,2.1-1.8,1.969-2.819-.324-2.46-2.624-5.865-3.749-7.089l-.955.531,1.961,8.4a.386.386,0,0,1-.04.238A.42.42,0,0,0-2370.6,6272.184Z" transform="translate(2372.813 -6262.334)" fill="#a7bfa2"/>
              </g>
            </g>
            <path id="Path_16775" data-name="Path 16775" d="M-2370.6,6260.715a.48.48,0,0,1,.074-.514l-.99.577,1.9,8.559S-2370.471,6261.134-2370.6,6260.715Z" transform="translate(2371.549 -6260.201)" fill="#859881"/>
            <path id="Path_16776" data-name="Path 16776" d="M-2300.286,6601.843a1.234,1.234,0,0,1-.15.489,1.019,1.019,0,0,1-.387.39,1.3,1.3,0,0,1-.545.152c-.093.007-.183,0-.277,0l-.266-.039a.314.314,0,0,1-.265-.356.314.314,0,0,1,.356-.265.317.317,0,0,1,.078.022l.022.009.187.081c.062.016.126.042.188.053a.876.876,0,0,0,.372,0,.7.7,0,0,0,.332-.2,1.047,1.047,0,0,0,.226-.361l0-.008a.066.066,0,0,1,.085-.039A.066.066,0,0,1-2300.286,6601.843Z" transform="translate(2303.873 -6593.58)" fill="#859881"/>
          </g>
          <g id="Group_12423" data-name="Group 12423" transform="translate(3.632 19.382)">
            <g id="Group_12422" data-name="Group 12422" transform="translate(0 0.051)">
              <g id="Group_12421" data-name="Group 12421">
                <path id="Path_16777" data-name="Path 16777" d="M-2970.555,6272.184a2.033,2.033,0,0,1-.523.059c-2.3.008-2.1-1.8-1.969-2.819.323-2.46,2.624-5.865,3.749-7.089l.955.531-1.961,8.4a.386.386,0,0,0,.04.238A.42.42,0,0,1-2970.555,6272.184Z" transform="translate(2973.12 -6262.334)" fill="#a7bfa2"/>
              </g>
            </g>
            <path id="Path_16778" data-name="Path 16778" d="M-2853.478,6260.715a.48.48,0,0,0-.074-.514l.99.577-1.9,8.559S-2853.608,6261.134-2853.478,6260.715Z" transform="translate(2857.307 -6260.201)" fill="#859881"/>
            <path id="Path_16779" data-name="Path 16779" d="M-2923.532,6601.843a1.242,1.242,0,0,0,.151.489,1.019,1.019,0,0,0,.387.39,1.3,1.3,0,0,0,.545.152c.093.007.183,0,.277,0l.266-.039a.314.314,0,0,0,.265-.356.314.314,0,0,0-.356-.265.317.317,0,0,0-.078.022l-.021.009-.187.081c-.062.016-.126.042-.188.053a.876.876,0,0,1-.372,0,.7.7,0,0,1-.332-.2,1.054,1.054,0,0,1-.226-.361l0-.008a.066.066,0,0,0-.085-.039A.067.067,0,0,0-2923.532,6601.843Z" transform="translate(2924.722 -6593.58)" fill="#859881"/>
          </g>
          <g id="Group_12426" data-name="Group 12426" transform="translate(6.464 19.83)">
            <path id="Path_16780" data-name="Path 16780" d="M-2848.119,6286.789c0-.014-.111-5.619-.111-7.02a16.319,16.319,0,0,1-4.819-.882s-1.85,6.968-1.937,9.34h0s.077.306.189.758c.312,1.256.911,3.639.953,3.741s-.24.557-.323,1.028c0,0,0,0,0,0a1.38,1.38,0,0,0-.022.209s0,.007,0,.009a.844.844,0,0,0,.1.434c.469.836,3.8.645,4.38-.245a2.687,2.687,0,0,0,.242-.642c0-.011.007-.021.011-.033.011-.037.02-.077.031-.119.018-.063.035-.129.053-.2s.033-.139.051-.209l.079-.348c.007-.031.013-.06.02-.09.049-.227.095-.458.141-.676.022-.117.044-.227.064-.335.009-.044.015-.085.024-.127l.013-.07c.007-.047.016-.091.024-.135s.015-.083.022-.125.013-.073.02-.105l.007-.039c.009-.052.017-.1.024-.137s.011-.068.016-.091v0a.223.223,0,0,1,.006-.033.113.113,0,0,1,0-.018,4.566,4.566,0,0,0,.627.046c.04,0,.079,0,.116,0v-3.89Z" transform="translate(2854.987 -6278.888)" fill="#a7bfa2"/>
            <g id="Group_12424" data-name="Group 12424" transform="translate(0.801 11.346)">
              <path id="Path_16781" data-name="Path 16781" d="M-2672.454,6755.645c-.006.038-.166.98-.364,1.894-.063.3-.133.589-.2.846a1.786,1.786,0,0,1-1.227,1.26c.943-.468.727-4.321.727-4.321Z" transform="translate(2677.779 -6755.244)" fill="#859881"/>
              <path id="Path_16782" data-name="Path 16782" d="M-2817.09,6855.579c-.578.891-3.913,1.08-4.382.246a.788.788,0,0,1-.089-.268,1.031,1.031,0,0,0,.089.638c.469.834,3.8.645,4.382-.246a5.547,5.547,0,0,0,.439-1.483l-.093.026A4.506,4.506,0,0,1-2817.09,6855.579Z" transform="translate(2821.574 -6852.01)" fill="#859881"/>
              <path id="Path_16783" data-name="Path 16783" d="M-2644.92,6752.527v-.311c-.04,0-.077,0-.116,0-.134,0-.269,0-.405-.011s-.271-.018-.407-.028-.273-.027-.414-.044l-.425-.053h-.009a.084.084,0,0,0-.075.026.091.091,0,0,0,0,.128l.046.042a1.943,1.943,0,0,0,.337.232,2.632,2.632,0,0,0,.429.185c.081.024.163.049.246.066a2.124,2.124,0,0,0,.209.042c.077.013.154.018.233.026s.156,0,.233.009l.116,0Z" transform="translate(2650.988 -6752.081)" fill="#859881"/>
            </g>
            <line id="Line_1860" data-name="Line 1860" y1="0.308" transform="translate(6.868 11.791)" fill="none"/>
            <path id="Path_16784" data-name="Path 16784" d="M-2578.442,6286.789c0-.014.112-5.619.112-7.02a16.32,16.32,0,0,0,4.819-.882s1.849,6.968,1.938,9.34h0s-.077.306-.189.758c-.312,1.256-.911,3.639-.952,3.741s.24.557.323,1.028c0,0,0,0,0,0a1.412,1.412,0,0,1,.022.209s0,.007,0,.009a.846.846,0,0,1-.1.434c-.469.836-3.8.645-4.38-.245a2.687,2.687,0,0,1-.242-.642c0-.011-.007-.021-.011-.033-.011-.037-.02-.077-.031-.119-.018-.063-.035-.129-.053-.2s-.033-.139-.051-.209l-.079-.348-.02-.09c-.049-.227-.094-.458-.141-.676-.022-.117-.044-.227-.064-.335-.009-.044-.015-.085-.024-.127,0-.024-.009-.049-.013-.07-.007-.047-.015-.091-.024-.135s-.015-.083-.022-.125-.013-.073-.02-.105l-.007-.039c-.009-.052-.018-.1-.024-.137s-.011-.068-.015-.091v0a.209.209,0,0,0-.007-.033.127.127,0,0,0,0-.018,4.562,4.562,0,0,1-.627.046c-.04,0-.079,0-.117,0v-3.89Z" transform="translate(2585.073 -6278.888)" fill="#a7bfa2"/>
            <g id="Group_12425" data-name="Group 12425" transform="translate(6.631 11.346)">
              <path id="Path_16785" data-name="Path 16785" d="M-2547.473,6755.645c.006.038.165.98.363,1.894.064.3.133.589.2.846a1.786,1.786,0,0,0,1.227,1.26c-.943-.468-.727-4.321-.727-4.321Z" transform="translate(2548.215 -6755.244)" fill="#859881"/>
              <path id="Path_16786" data-name="Path 16786" d="M-2530.27,6855.579c.578.891,3.913,1.08,4.382.246a.782.782,0,0,0,.089-.268,1.031,1.031,0,0,1-.089.638c-.469.834-3.8.645-4.382-.246a5.547,5.547,0,0,1-.439-1.483l.093.026A4.492,4.492,0,0,0-2530.27,6855.579Z" transform="translate(2531.854 -6852.01)" fill="#859881"/>
              <path id="Path_16787" data-name="Path 16787" d="M-2578.444,6752.835l.116,0c.077,0,.156,0,.233-.009s.156-.013.233-.026.141-.024.209-.042c.083-.017.165-.042.246-.066a2.641,2.641,0,0,0,.429-.185,1.943,1.943,0,0,0,.337-.232l.046-.042a.091.091,0,0,0,0-.128.084.084,0,0,0-.075-.026h-.009l-.425.053c-.141.017-.277.032-.414.044s-.272.024-.407.028-.271.009-.405.011c-.039,0-.077,0-.116,0v.619Z" transform="translate(2578.444 -6752.081)" fill="#859881"/>
            </g>
            <line id="Line_1861" data-name="Line 1861" y2="0.308" transform="translate(6.631 11.791)" fill="none"/>
          </g>
          <g id="Group_12433" data-name="Group 12433">
            <g id="Group_12431" data-name="Group 12431" transform="translate(0 5.886)">
              <g id="Group_12428" data-name="Group 12428">
                <g id="Group_12427" data-name="Group 12427">
                  <path id="Path_16788" data-name="Path 16788" d="M-3123.54,5703.741a1.479,1.479,0,0,0,2.85-.238,5.933,5.933,0,0,0,.129-1.43c-.044-2.427-2.038-3.546-3.4-4.662a.4.4,0,0,0-.616.394,42.5,42.5,0,0,1,.927,5.5,1.683,1.683,0,0,0,.107.438Z" transform="translate(3124.587 -5697.338)" fill="#a7bfa2"/>
                </g>
                <path id="Path_16789" data-name="Path 16789" d="M-3056.2,5791.146s1.662,1.009,1.6,2.416-.418,1.4-.479,1.383-.271.061-.363-.5S-3055.033,5792.672-3056.2,5791.146Z" transform="translate(3057.844 -5788.897)" fill="#859881"/>
              </g>
              <g id="Group_12430" data-name="Group 12430" transform="translate(22.392)">
                <g id="Group_12429" data-name="Group 12429">
                  <path id="Path_16790" data-name="Path 16790" d="M-2187.734,5703.741a1.479,1.479,0,0,1-2.85-.238,5.922,5.922,0,0,1-.129-1.43c.044-2.427,2.038-3.546,3.4-4.662a.4.4,0,0,1,.616.394,42.544,42.544,0,0,0-.927,5.5,1.7,1.7,0,0,1-.107.438Z" transform="translate(2190.714 -5697.338)" fill="#a7bfa2"/>
                </g>
                <path id="Path_16791" data-name="Path 16791" d="M-2156.453,5791.146s-1.662,1.009-1.6,2.416.418,1.4.479,1.383.271.061.363-.5S-2157.624,5792.672-2156.453,5791.146Z" transform="translate(2158.84 -5788.897)" fill="#859881"/>
              </g>
            </g>
            <g id="Group_12432" data-name="Group 12432" transform="translate(3.502)">
              <path id="Path_16792" data-name="Path 16792" d="M-2959.078,5462.8c.257-10.948-9.477-10.951-9.716-10.949s-9.972,0-9.716,10.949c0,0-.624,9.944,9.712,9.95h.009C-2958.454,5472.739-2959.078,5462.8-2959.078,5462.8Z" transform="translate(2978.517 -5451.847)" fill="#a7bfa2"/>
            </g>
            <path id="Path_16793" data-name="Path 16793" d="M-2922.865,6106.968s-2.26,4.757-8.8,4.64h-.009c-6.544.117-8.8-4.64-8.8-4.64,2.272,5.524,8.08,5.216,8.8,5.25h.012C-2930.945,6112.184-2925.137,6112.492-2922.865,6106.968Z" transform="translate(2944.897 -6091.26)" fill="#859881"/>
          </g>
        </g>
        <g id="Group_12438" data-name="Group 12438" transform="translate(6.306 5.416)">
          <path id="Path_16794" data-name="Path 16794" d="M-2835.055,5624.946a4.433,4.433,0,0,0-2.842,1.337.1.1,0,0,1-.167-.114,3.194,3.194,0,0,1,1.323-1.5,2.04,2.04,0,0,1,1.718.125A.084.084,0,0,1-2835.055,5624.946Z" transform="translate(2838.639 -5622.458)"/>
          <path id="Path_16795" data-name="Path 16795" d="M-2497.4,5538.583a4.437,4.437,0,0,1,2.748,1.524.1.1,0,0,0,.174-.1,3.2,3.2,0,0,0-1.22-1.589,2.036,2.036,0,0,0-1.722.01A.083.083,0,0,0-2497.4,5538.583Z" transform="translate(2506.202 -5538.227)"/>
          <g id="Group_12437" data-name="Group 12437" transform="translate(0 3.823)">
            <g id="Group_12435" data-name="Group 12435">
              <path id="Path_16796" data-name="Path 16796" d="M-2850.265,5710.958a3.226,3.226,0,0,0-2.719-1.312,3.287,3.287,0,0,0-2.576,1.612,3.843,3.843,0,0,0-.067,3.692,3.283,3.283,0,0,0,3.028,1.728,3.365,3.365,0,0,0,2.794-2.137A3.827,3.827,0,0,0-2850.265,5710.958Z" transform="translate(2856.2 -5709.354)" fill="#fff"/>
              <path id="Path_16797" data-name="Path 16797" d="M-2855.766,5699.339l-.161-.177a1.452,1.452,0,0,0-.2-.2,2.537,2.537,0,0,0-.286-.227,3.355,3.355,0,0,0-.887-.439,3.231,3.231,0,0,0-1.252-.12l-.188.02c-.059.011-.112.027-.17.04l-.172.041-.176.064-.179.067-.172.09a2.182,2.182,0,0,0-.341.208,3.206,3.206,0,0,0-1.089,1.306,3.782,3.782,0,0,0-.324,1.808,3.327,3.327,0,0,0,.641,1.813,3.34,3.34,0,0,0,1.553,1.133,2.781,2.781,0,0,0,1.855.014,3.3,3.3,0,0,0,1.432-.99l.135-.158c.04-.057.075-.115.112-.172a2.176,2.176,0,0,0,.2-.346c.052-.119.118-.237.155-.349l.112-.366a3.964,3.964,0,0,0,.073-1.313c-.018-.2-.069-.375-.1-.542-.054-.162-.1-.31-.149-.444l-.163-.339a2.224,2.224,0,0,0-.142-.237l-.125-.194Zm.188-.149.129.211a2.31,2.31,0,0,1,.154.253l.169.363c.05.142.1.3.154.472.029.178.081.368.1.576a4.165,4.165,0,0,1-.1,1.4l-.115.364c-.048.138-.114.25-.171.378a2.351,2.351,0,0,1-.217.364c-.04.06-.078.121-.121.18l-.145.166a3.469,3.469,0,0,1-1.526,1.03,2.946,2.946,0,0,1-1.952-.036,3.613,3.613,0,0,1-1.619-1.2,3.805,3.805,0,0,1-.744-1.868,4.133,4.133,0,0,1,.238-1.981,3.547,3.547,0,0,1,1.133-1.508,2.523,2.523,0,0,1,.381-.251l.2-.11.2-.085c.068-.028.134-.057.2-.083l.216-.059c.071-.019.144-.04.212-.055l.187-.026.183-.026c.041,0,.015,0,.026,0h.094l.1,0a1.991,1.991,0,0,1,.382.031,2.313,2.313,0,0,1,.355.07c.111.038.22.071.322.111a3.383,3.383,0,0,1,.943.6,3.116,3.116,0,0,1,.3.29,1.7,1.7,0,0,1,.188.228l.143.192Z" transform="translate(2861.609 -5697.658)"/>
            </g>
            <path id="Path_16798" data-name="Path 16798" d="M-2770.889,5819.988a1.3,1.3,0,0,1-1.3,1.3,1.3,1.3,0,0,1-1.3-1.3,1.3,1.3,0,0,1,1.3-1.3A1.3,1.3,0,0,1-2770.889,5819.988Z" transform="translate(2775.61 -5815.782)" fill="#1d1d1b"/>
            <path id="Path_16799" data-name="Path 16799" d="M-2752.5,5835.7a.431.431,0,0,1-.431.431.431.431,0,0,1-.43-.431.431.431,0,0,1,.43-.431A.431.431,0,0,1-2752.5,5835.7Z" transform="translate(2755.96 -5831.969)" fill="#fff"/>
            <g id="Group_12436" data-name="Group 12436" transform="translate(7.576 0.084)">
              <path id="Path_16800" data-name="Path 16800" d="M-2540.982,5710.958a3.226,3.226,0,0,1,2.719-1.312,3.286,3.286,0,0,1,2.576,1.612,3.842,3.842,0,0,1,.067,3.692,3.283,3.283,0,0,1-3.028,1.728,3.365,3.365,0,0,1-2.794-2.137A3.828,3.828,0,0,1-2540.982,5710.958Z" transform="translate(2541.788 -5709.438)" fill="#fff"/>
              <path id="Path_16801" data-name="Path 16801" d="M-2544.941,5702.605l.152-.2a1.668,1.668,0,0,1,.193-.222,2.845,2.845,0,0,1,.3-.28,3.522,3.522,0,0,1,.949-.56,2.992,2.992,0,0,1,1.431-.167l.187.026c.066.015.136.036.2.054l.208.058c.066.025.131.054.2.081l.2.084.19.108a2.54,2.54,0,0,1,.371.246,3.522,3.522,0,0,1,1.135,1.464,4,4,0,0,1,.258,1.954,3.779,3.779,0,0,1-.737,1.856,3.442,3.442,0,0,1-1.615,1.162,3.081,3.081,0,0,1-1.915.021,3.421,3.421,0,0,1-1.509-1l-.145-.162c-.043-.058-.081-.118-.122-.177a2.268,2.268,0,0,1-.218-.356c-.058-.127-.126-.238-.174-.371l-.119-.363a4.137,4.137,0,0,1-.111-1.389c.014-.207.064-.4.092-.575.053-.172.1-.332.148-.474l.166-.366a2.321,2.321,0,0,1,.153-.254Zm.191.146-.126.188a2.02,2.02,0,0,0-.141.238l-.159.341c-.044.134-.092.283-.144.444-.027.168-.077.347-.092.543a3.944,3.944,0,0,0,.088,1.3l.116.364c.037.107.1.227.157.343a2.141,2.141,0,0,0,.2.339c.037.055.073.114.113.168l.136.155a3.245,3.245,0,0,0,1.415.956,2.924,2.924,0,0,0,1.818,0,3.177,3.177,0,0,0,1.55-1.1,3.3,3.3,0,0,0,.634-1.8,3.626,3.626,0,0,0-.345-1.78,3.157,3.157,0,0,0-1.091-1.262,2,2,0,0,0-.331-.2l-.168-.089-.174-.066-.171-.063-.164-.039c-.055-.014-.105-.029-.162-.04l-.188-.021-.185-.019h-.143a1.465,1.465,0,0,0-.315.013,5.139,5.139,0,0,0-.58.1,3.5,3.5,0,0,0-.893.4,2.23,2.23,0,0,0-.291.217,1.419,1.419,0,0,0-.2.191Z" transform="translate(2545.65 -5701.157)"/>
            </g>
            <path id="Path_16802" data-name="Path 16802" d="M-2453.513,5816.438a1.3,1.3,0,0,1-1.3,1.3,1.3,1.3,0,0,1-1.3-1.3,1.305,1.305,0,0,1,1.3-1.305A1.305,1.305,0,0,1-2453.513,5816.438Z" transform="translate(2465.845 -5812.316)" fill="#1d1d1b"/>
            <path id="Path_16803" data-name="Path 16803" d="M-2435.128,5832.148a.43.43,0,0,1-.431.431.43.43,0,0,1-.43-.431.43.43,0,0,1,.43-.431A.431.431,0,0,1-2435.128,5832.148Z" transform="translate(2446.194 -5828.503)" fill="#fff"/>
            <path id="Path_16804" data-name="Path 16804" d="M-2845.081,5874.9a3.594,3.594,0,0,0,.214-.9,4.413,4.413,0,0,1-.166.479,3.362,3.362,0,0,1-2.782,2.178,3.255,3.255,0,0,1-3.014-1.761,3.642,3.642,0,0,1-.32-.866,3.553,3.553,0,0,0,.365,1.309,3.229,3.229,0,0,0,2.963,1.728A3.378,3.378,0,0,0-2845.081,5874.9Z" transform="translate(2851.4 -5869.773)" fill="#ededed"/>
            <path id="Path_16805" data-name="Path 16805" d="M-2534.495,5876.133a3.5,3.5,0,0,1-.216-.881,3.46,3.46,0,0,0,.132.421,3.322,3.322,0,0,0,2.758,2.121,3.239,3.239,0,0,0,2.989-1.714,3.518,3.518,0,0,0,.317-.844,3.812,3.812,0,0,1-.379,1.349,3.121,3.121,0,0,1-2.921,1.608A3.227,3.227,0,0,1-2534.495,5876.133Z" transform="translate(2542.549 -5870.979)" fill="#ededed"/>
          </g>
        </g>
        <g id="Group_12439" data-name="Group 12439" transform="translate(3.754 22.778)">
          <path id="Path_16806" data-name="Path 16806" d="M-2371.518,6262.737l.924-.4a16.484,16.484,0,0,1,3.725,5.984,3.545,3.545,0,0,1-3.074.941A53.565,53.565,0,0,0-2371.518,6262.737Z" transform="translate(2385.82 -6262.334)" fill="url(#linear-gradient)"/>
          <path id="Path_16807" data-name="Path 16807" d="M-2963.356,6262.737l-.924-.4a16.48,16.48,0,0,0-3.725,5.984,3.545,3.545,0,0,0,3.074.941A53.565,53.565,0,0,1-2963.356,6262.737Z" transform="translate(2968.006 -6262.334)" fill="url(#linear-gradient)"/>
          <path id="Path_16808" data-name="Path 16808" d="M-2842.064,6279.118a13.684,13.684,0,0,1-4.826,1.073,13.686,13.686,0,0,1-4.826-1.073,33.79,33.79,0,0,0-1.907,9.212,37.276,37.276,0,0,1,6.733-.618,37.276,37.276,0,0,1,6.733.618A33.8,33.8,0,0,0-2842.064,6279.118Z" transform="translate(2856.366 -6278.716)" fill="url(#linear-gradient)"/>
          <g id="Logo_-_White_on_Gradation" data-name="Logo - White on Gradation" transform="translate(6.919 2.487)">
            <circle id="Ellipse_5446" data-name="Ellipse 5446" cx="2.527" cy="2.527" r="2.527" fill="#fff"/>
            <g id="Group_10743" data-name="Group 10743" transform="translate(0.501 1.121)">
              <path id="Path_226" data-name="Path 226" d="M-2558.8,6491.934c.094,0,.165-.05.165-.115v-.672c0-.066-.072-.116-.165-.116s-.165.05-.165.116v.672C-2558.965,6491.884-2558.888,6491.934-2558.8,6491.934Z" transform="translate(2561.353 -6489.154)" fill="url(#linear-gradient)"/>
              <g id="Group_9443" data-name="Group 9443">
                <path id="Path_11" data-name="Path 11" d="M-2657.3,6412.807a1.234,1.234,0,0,0-1.234,1.316,1.184,1.184,0,0,0,1.333,1.152,1.036,1.036,0,0,0,.826-.419l-.38-.286a.8.8,0,0,1-.452.192.653.653,0,0,1-.694-.667.652.652,0,0,1,.628-.733.646.646,0,0,1,.689.645h0a.313.313,0,0,0,.331.275.323.323,0,0,0,.3-.309h0A1.22,1.22,0,0,0-2657.3,6412.807Z" transform="translate(2658.536 -6412.804)" fill="url(#linear-gradient)"/>
              </g>
              <path id="Path_227" data-name="Path 227" d="M-2588.506,6444.416c.27-.264.524-.528.766-.777a.889.889,0,0,1,.722-.236.876.876,0,0,1,.783.656,1.065,1.065,0,0,1,.022.138.018.018,0,0,0,.006.016v.094a1.192,1.192,0,0,1-.016.122.846.846,0,0,1-.458.628,1.36,1.36,0,0,1-.182.071.847.847,0,0,1-.827-.2c-.061-.055-.116-.11-.176-.165a.156.156,0,0,1-.005-.221.165.165,0,0,1,.231-.017l.05.05c.038.038.077.072.116.109a.528.528,0,0,0,.545.127.5.5,0,0,0,.38-.413.518.518,0,0,0-.452-.617.544.544,0,0,0-.479.182c-.3.309-.441.513-.705.827a.246.246,0,0,1-.347.021.247.247,0,0,1-.083-.182.259.259,0,0,1,.061-.171.111.111,0,0,1,.028-.022Z" transform="translate(2590.293 -6442.662)" fill="url(#linear-gradient)"/>
            </g>
          </g>
        </g>
        <g id="Group_12440" data-name="Group 12440" transform="translate(11.187 0)">
          <path id="Path_247" data-name="Path 247" d="M-2654.006,5316.076c0-.01,0-.019.006-.027s.006-.038.008-.057,0-.025,0-.038,0-.032,0-.049v-.048a.21.21,0,0,0,0-.039c0-.013,0-.038-.008-.057a.131.131,0,0,0-.006-.027c-.005-.021-.011-.043-.019-.065a.044.044,0,0,0,0-.013c-.007-.021-.015-.043-.024-.062l-1.278-2.8a.746.746,0,0,0-.988-.368.743.743,0,0,0-.367.368l-1.279,2.8c-.01.021-.017.043-.024.063,0,0,0,.008,0,.012-.007.022-.013.043-.018.065s0,.018-.006.028a.569.569,0,0,0-.009.057c0,.019,0,.026,0,.039s0,.032,0,.048v.048a.324.324,0,0,0,0,.039c0,.013,0,.038.009.057a.122.122,0,0,0,.006.028c.005.021.011.043.018.065,0,0,0,.007,0,.012a.6.6,0,0,0,.024.063l1.279,2.8a.745.745,0,0,0,.988.367.745.745,0,0,0,.368-.367l1.278-2.8c.01-.02.017-.042.024-.062a.046.046,0,0,1,0-.013C-2654.018,5316.119-2654.012,5316.1-2654.006,5316.076Z" transform="translate(2658.032 -5312.362)" fill="#eee"/>
        </g>
        <g id="Group_12442" data-name="Group 12442" transform="translate(6.126 16.868)">
          <g id="Group_12441" data-name="Group 12441">
            <path id="Path_16809" data-name="Path 16809" d="M-2869.087,6017.564a2.368,2.368,0,0,0,.98,1.59,10.2,10.2,0,0,0,6.115,2.448,10.207,10.207,0,0,0,6.326-1.837,3.325,3.325,0,0,0,1.043-1.052,1.44,1.44,0,0,0,.037-1.425,1.532,1.532,0,0,0-1.274-.631,5.871,5.871,0,0,0-1.459.233,13.261,13.261,0,0,1-7.144-.356,7.554,7.554,0,0,0-2.722-.653C-2868.122,6015.928-2869.117,6016.626-2869.087,6017.564Z" transform="translate(2869.088 -6015.876)"/>
            <path id="Path_16810" data-name="Path 16810" d="M-2661.284,6279.355s.071.008.2.026.3.059.508.081c.1.013.216.027.333.047s.245.023.373.042c.258.035.535.044.81.067.276,0,.553.022.813.013.13-.007.257,0,.376,0s.233-.012.338-.015c.211,0,.385-.028.51-.03s.2-.006.2-.006-.066.028-.183.072a3.638,3.638,0,0,1-.5.155c-.1.024-.219.05-.34.073a3.3,3.3,0,0,1-.385.051,3.292,3.292,0,0,1-.415.028h-.43l-.428-.042a3.311,3.311,0,0,1-.411-.069,3.49,3.49,0,0,1-.379-.088c-.12-.035-.231-.073-.333-.107a3.524,3.524,0,0,1-.475-.2C-2661.221,6279.39-2661.284,6279.355-2661.284,6279.355Z" transform="translate(2666.266 -6273.038)"/>
            <path id="Path_16811" data-name="Path 16811" d="M-2685.744,6174.681a4.648,4.648,0,0,0-3.207,1.065,8.863,8.863,0,0,0,2.808.609,8.908,8.908,0,0,0,3.257-.454A4.644,4.644,0,0,0-2685.744,6174.681Z" transform="translate(2693.27 -6170.867)" fill="#db5b54"/>
          </g>
          <path id="Path_16207" data-name="Path 16207" d="M-2410.458,6092.575l-.47.27c-.151.088-.317-.047-.371-.3a.79.79,0,0,1-.016-.2l.105-1.986c.014-.267.155-.461.315-.435a.277.277,0,0,1,.183.147l.835,1.447a.728.728,0,0,1-.006.684.3.3,0,0,1-.105.107Z" transform="translate(2422.292 -6088.142)" fill="#fff"/>
          <path id="Path_16207-2" data-name="Path 16207" d="M-2769.667,6092.575l.47.27c.151.088.318-.047.372-.3a.79.79,0,0,0,.016-.2l-.105-1.986c-.014-.267-.156-.461-.315-.435a.277.277,0,0,0-.183.147l-.835,1.447a.728.728,0,0,0,.006.684.3.3,0,0,0,.105.107Z" transform="translate(2772.699 -6088.142)" fill="#fff"/>
        </g>
      </g>
      <g id="Group_12444" data-name="Group 12444" transform="translate(22.558 0)">
        <path id="Path_16812" data-name="Path 16812" d="M-2181.759,4924.881l-.776,3.843,3.543-1.691a9.385,9.385,0,0,0,4.233,1,8.807,8.807,0,0,0,9.038-8.559,8.809,8.809,0,0,0-9.038-8.56,8.809,8.809,0,0,0-9.037,8.56A8.248,8.248,0,0,0-2181.759,4924.881Z" transform="translate(2183.795 -4910.91)" fill="#f7d064" fill-rule="evenodd"/>
        <path id="Path_16813" data-name="Path 16813" d="M-2049.314,5216.147a1.306,1.306,0,0,0,1.3-1.3,1.306,1.306,0,0,0-1.3-1.3,1.306,1.306,0,0,0-1.3,1.3A1.306,1.306,0,0,0-2049.314,5216.147Z" transform="translate(2053.81 -5206.284)" fill="#d6fbff" fill-rule="evenodd"/>
        <path id="Path_16814" data-name="Path 16814" d="M-1670.6,5216.147a1.306,1.306,0,0,0,1.3-1.3,1.306,1.306,0,0,0-1.3-1.3,1.306,1.306,0,0,0-1.3,1.3A1.306,1.306,0,0,0-1670.6,5216.147Z" transform="translate(1684.182 -5206.284)" fill="#d6fbff" fill-rule="evenodd"/>
        <path id="Path_16815" data-name="Path 16815" d="M-1859.966,5216.147a1.306,1.306,0,0,0,1.3-1.3,1.306,1.306,0,0,0-1.3-1.3,1.306,1.306,0,0,0-1.3,1.3A1.306,1.306,0,0,0-1859.966,5216.147Z" transform="translate(1869.003 -5206.284)" fill="#d6fbff" fill-rule="evenodd"/>
      </g>
    </g>
  </g>
</svg>
